Genre:Drama | Thriller
Language: English  http://www.imdb.com/title/tt1407084/
Source:BluRay.x264-TWiZTED


Format : Matroska
File size : 1.70 GiB
Duration : 1h 34mn
Overall bit rate : 2 576 Kbps


Video
Format settings, CABAC : Yes
Format settings, ReFrames : 4 frames
Format settings, GOP : M=1, N=32
Codec ID : V_MPEG4/ISO/AVC
Duration : 1h 34mn
Bit rate : 2 200 Kbps
Width : 1 280 pixels
Height : 688 pixels
Display aspect ratio : 1.860
Frame rate mode : Variable
Frame rate : 23.976 fps
Color space : YUV
Chroma subsampling : 4:2:0
Bit depth : 8 bits
Scan type : Progressive
Bits/(Pixel*Frame) : 0.104
Stream size : 1.41 GiB (83%)
Writing library : x264


Audio
ID : 2
Format : AC-3
Format/Info : Audio Coding 3
Mode extension : CM (complete main)
Codec ID : A_AC3
Duration : 1h 34mn
Bit rate mode : Constant
Bit rate : 384 Kbps
Channel(s) : 6 channels
Channel positions : Front: L C R, Side: L R, LFE
Sampling rate : 48.0 KHz
Bit depth : 16 bits
Video delay : -1mn 5s
Stream size : 260 MiB (15%)
Language : English



Plot
A young drug dealer watches as his high-rolling life is dismantled in the wake of his cousin's murder, which sees his best friend arrested for the crime
 
http://shareimage.org/images/2gly8ks58tcyq3y4ycdz.png 
http://shareimage.org/images/x8imgdrb1mdny3fo16uj.png 
http://shareimage.org/images/djydjtda18ou81ubqg8.png